<?xml version="1.0" standalone="no"?>
<!DOCTYPE svg PUBLIC "-//W3C//DTD SVG 20010904//EN"
 "http://www.w3.org/TR/2001/REC-SVG-20010904/DTD/svg10.dtd">
<svg version="1.0" xmlns="http://www.w3.org/2000/svg"
 width="500.000000pt" height="500.000000pt" viewBox="0 0 500.000000 500.000000"
 preserveAspectRatio="xMidYMid meet">

<g transform="translate(0.000000,500.000000) scale(0.100000,-0.100000)"
fill="#000000" stroke="none">
<path d="M3610 4798 c-350 -97 -668 -326 -862 -623 -135 -206 -228 -500 -228
-717 0 -72 2 -81 26 -105 25 -25 29 -26 107 -20 165 12 353 87 537 215 263
182 460 485 554 852 31 124 46 218 49 308 2 63 -1 76 -17 88 -23 16 -112 17
-166 2z m125 -47 c9 -15 -22 -213 -54 -342 -56 -224 -144 -407 -277 -573 -122
-152 -247 -253 -421 -340 -114 -56 -242 -95 -331 -98 l-67 -3 -3 54 c-7 129
52 365 138 548 166 354 515 635 925 743 84 23 82 22 90 11z"/>
<path d="M1530 3320 c-219 -33 -448 -151 -628 -324 -267 -257 -423 -619 -426
-986 -1 -186 13 -230 73 -230 47 0 55 21 62 164 11 202 60 387 148 551 164
307 367 482 691 596 58 21 83 23 245 23 179 1 181 1 275 -32 52 -19 156 -62
230 -97 74 -35 156 -70 183 -79 80 -27 187 -39 292 -33 115 6 160 21 373 121
75 35 173 77 217 92 77 27 87 28 270 28 178 0 195 -1 270 -26 113 -36 228 -96
324 -168 l81 -62 -53 -61 c-29 -34 -64 -80 -77 -102 -12 -22 -44 -71 -70 -110
-93 -137 -136 -252 -169 -452 -39 -234 -35 -388 15 -588 65 -255 219 -501 429
-682 48 -42 67 -53 96 -53 40 0 69 24 69 57 0 20 -24 53 -121 165 -53 61 -131
183 -182 284 -49 97 -82 194 -107 313 -20 92 -22 123 -17 285 3 115 11 201 20
236 9 30 23 82 32 115 39 140 135 292 270 428 113 114 131 144 115 193 -21 62
-214 215 -396 313 -200 107 -335 137 -581 128 -196 -6 -253 -22 -520 -141
-209 -93 -283 -113 -393 -102 -86 8 -103 13 -310 106 -255 115 -318 132 -515
135 -88 2 -185 0 -215 -5z m460 -88 c52 -16 169 -64 260 -105 223 -101 225
-102 365 -102 139 0 136 -1 377 106 97 42 214 90 260 105 80 27 91 28 278 28
238 0 292 -12 485 -110 140 -71 356 -228 382 -278 14 -27 13 -28 -84 -129
-178 -184 -247 -297 -307 -502 -39 -134 -49 -235 -43 -428 4 -152 8 -185 35
-284 52 -188 182 -430 307 -573 27 -30 56 -64 64 -74 15 -18 15 -18 -4 -8 -34
17 -191 182 -246 257 -178 243 -264 544 -239 833 23 254 76 433 172 572 25 36
61 92 81 125 19 33 63 88 96 122 62 63 66 70 53 89 -21 31 -210 162 -297 205
-148 73 -268 101 -435 102 -206 1 -262 -13 -515 -128 -268 -121 -261 -119
-415 -119 -158 0 -186 8 -400 109 -228 107 -346 138 -520 137 -114 0 -214 -14
-288 -38 -147 -49 -348 -169 -455 -272 -82 -79 -203 -249 -261 -366 -77 -157
-109 -258 -142 -461 l-13 -80 4 125 c8 242 104 496 274 723 75 100 174 195
282 267 121 83 319 162 454 184 17 2 100 3 185 1 140 -2 164 -6 250 -33z"/>
<path d="M1720 2744 c-51 -59 -65 -97 -50 -134 7 -17 68 -83 136 -146 140
-132 159 -162 151 -242 -5 -44 -12 -61 -38 -89 -41 -41 -105 -73 -148 -73 -51
0 -88 26 -213 147 -104 100 -121 113 -152 113 -55 0 -82 -15 -125 -70 -66 -83
-64 -90 79 -325 37 -60 78 -130 90 -155 46 -90 118 -187 150 -200 37 -15 280
-9 417 11 143 21 115 41 555 -394 212 -210 394 -395 404 -412 16 -24 20 -55
24 -195 5 -161 6 -167 37 -230 45 -91 138 -183 232 -228 66 -32 84 -36 175
-40 171 -8 271 31 386 148 114 116 158 237 146 399 -9 117 -50 214 -127 296
-109 116 -238 159 -409 137 -129 -17 -150 -16 -201 17 -56 36 -741 725 -761
766 -11 21 -18 80 -22 200 -10 245 -23 380 -40 412 -29 58 -36 61 -468 279
-71 36 -96 44 -141 44 -51 0 -57 -3 -87 -36z m219 -73 c421 -213 414 -209 431
-271 5 -20 14 -149 18 -286 7 -212 11 -255 27 -289 26 -55 755 -786 812 -814
48 -24 113 -27 228 -10 137 21 248 -16 342 -113 124 -127 157 -333 78 -494
-54 -110 -167 -207 -280 -240 -91 -26 -217 -16 -299 25 -80 39 -166 124 -203
199 -26 53 -28 68 -33 222 -4 135 -9 171 -24 200 -23 42 -788 805 -831 827
-40 21 -146 28 -220 14 -91 -18 -337 -26 -362 -13 -12 7 -39 42 -62 79 -149
245 -261 441 -261 455 0 27 69 98 94 98 13 0 64 -42 136 -112 63 -61 133 -119
155 -129 82 -38 183 -17 257 52 63 59 73 84 73 174 0 98 -15 125 -127 225
-125 111 -158 147 -158 168 0 26 56 92 78 92 8 0 67 -26 131 -59z"/>
<path d="M3482 731 c-51 -6 -55 -8 -102 -70 -28 -36 -50 -74 -50 -86 0 -12 9
-48 20 -81 18 -53 26 -63 78 -96 66 -42 129 -51 153 -22 8 9 31 27 51 40 21
14 38 32 38 41 0 9 9 36 21 60 16 33 18 47 10 57 -6 7 -19 37 -29 67 -10 29
-25 56 -33 59 -8 4 -29 14 -47 23 -19 9 -39 16 -45 15 -7 -1 -36 -4 -65 -7z
m97 -75 c13 -7 32 -34 42 -60 16 -42 16 -50 2 -84 -18 -45 -85 -96 -117 -88
-36 9 -93 69 -105 111 -10 37 -8 41 26 87 35 45 40 48 83 48 25 -1 56 -7 69
-14z"/>
<path d="M2992 2733 c-12 -2 -46 -34 -76 -71 -78 -97 -88 -105 -154 -110 -72
-5 -102 -30 -102 -81 1 -66 38 -91 137 -91 84 0 118 19 198 110 32 36 65 72
75 80 42 36 53 103 23 138 -19 22 -63 32 -101 25z m56 -76 c5 -27 -155 -195
-198 -207 -71 -20 -130 -10 -130 21 0 16 7 19 44 19 71 0 97 16 175 106 73 83
102 99 109 61z"/>
<path d="M3109 2584 c-21 -23 -24 -36 -27 -120 l-4 -94 -66 0 c-37 -1 -78 -7
-91 -14 -38 -21 -139 -126 -152 -159 -22 -52 30 -117 92 -117 12 0 49 27 83
60 l63 60 90 0 c102 0 136 16 148 70 l7 30 30 -25 c61 -52 155 -24 174 51 6
25 3 38 -21 97 -6 15 0 17 64 17 l71 0 0 -41 c0 -33 -7 -49 -40 -86 -48 -55
-60 -94 -60 -196 l0 -78 -22 15 c-19 13 -62 16 -266 16 l-243 0 -24 -25 c-29
-29 -34 -88 -9 -123 15 -22 18 -22 271 -22 225 0 259 2 275 17 17 15 18 14 18
-43 0 -77 14 -125 45 -154 19 -18 25 -34 25 -64 l0 -40 -73 72 c-63 63 -77 72
-109 72 -28 0 -42 -7 -62 -31 -46 -54 -37 -79 60 -175 90 -88 120 -104 159
-86 22 10 23 8 27 -38 7 -74 29 -100 83 -100 81 0 88 22 83 267 l-3 172 -34
35 -34 35 7 167 7 167 35 39 c19 22 39 50 44 64 13 33 13 219 0 265 -19 67
-27 69 -328 69 l-269 0 -24 -26z m559 -52 c8 -10 12 -53 12 -124 l0 -109 -45
-48 -46 -49 -6 -194 -6 -195 36 -40 37 -40 0 -172 c0 -164 -1 -171 -20 -171
-29 0 -34 35 -27 186 l7 133 -40 46 -40 46 0 187 c0 103 4 202 10 220 5 19 27
54 50 78 40 43 40 44 40 122 0 47 -5 83 -12 90 -9 9 -69 12 -208 12 -139 0
-199 -3 -208 -12 -8 -8 -12 -47 -12 -109 0 -54 -3 -104 -6 -113 -5 -13 -24
-16 -108 -16 l-102 0 -54 -55 c-51 -52 -82 -67 -94 -46 -8 12 85 123 116 139
12 6 61 13 108 14 l85 3 8 105 c4 58 9 111 12 117 3 9 55 13 192 15 243 4 305
0 321 -20z m-378 -101 c0 -5 -7 -14 -15 -21 -13 -10 -15 -9 -15 9 0 12 6 21
15 21 8 0 15 -4 15 -9z m104 -63 c24 -39 -44 -79 -74 -43 -21 25 3 67 37 63
14 -2 31 -11 37 -20z m16 -383 l0 -25 -202 0 c-112 0 -213 -3 -225 -6 -25 -7
-40 14 -29 41 4 13 40 15 231 15 l225 0 0 -25z m23 -351 c76 -82 80 -89 62
-104 -12 -10 -27 0 -90 63 -73 75 -82 87 -68 100 16 16 38 3 96 -59z"/>
<path d="M970 1905 c-20 -21 -22 -31 -16 -77 3 -29 20 -96 36 -148 17 -51 30
-100 30 -108 0 -8 -13 -31 -28 -51 -34 -42 -52 -91 -52 -136 0 -37 57 -127
155 -245 89 -107 145 -190 145 -215 0 -12 -9 -57 -20 -100 -25 -99 -25 -129 1
-171 11 -19 89 -89 172 -155 84 -67 168 -137 187 -155 64 -60 157 -81 218 -50
15 8 91 83 169 167 77 85 153 164 167 176 20 17 26 32 26 61 0 53 -32 82 -90
82 -40 0 -47 -4 -94 -57 -83 -94 -249 -263 -259 -263 -4 0 -53 39 -108 88 -55
48 -122 103 -147 123 -79 61 -78 59 -59 152 30 146 22 182 -65 288 -123 150
-219 281 -214 293 3 6 22 33 41 60 45 62 45 100 1 248 -18 62 -36 125 -40 139
-3 14 -15 38 -27 52 -29 37 -95 38 -129 2z m130 -185 c22 -74 40 -146 40 -161
0 -14 -20 -53 -45 -89 -25 -35 -45 -69 -45 -75 0 -12 118 -170 233 -312 82
-102 86 -121 57 -260 l-22 -107 45 -40 c24 -23 80 -70 122 -106 43 -36 99 -83
124 -106 63 -55 102 -84 114 -84 15 0 169 153 259 258 80 92 109 109 116 68 3
-12 -9 -31 -29 -51 -39 -36 -173 -177 -236 -247 -24 -26 -51 -52 -62 -58 -30
-16 -73 -12 -106 10 -72 48 -381 307 -394 331 -13 24 -13 35 7 113 39 154 38
158 -112 346 -182 228 -189 245 -141 311 13 19 33 50 43 69 l19 35 -38 135
c-42 147 -45 166 -26 173 23 9 37 -19 77 -153z"/>
<path d="M2916 1779 c-55 -65 -16 -169 62 -169 32 0 45 -10 136 -104 56 -57
111 -109 123 -115 54 -28 117 5 129 67 6 32 2 38 -108 145 -211 207 -211 207
-267 207 -43 0 -53 -4 -75 -31z m119 -55 c11 -17 31 -36 45 -42 43 -19 224
-208 217 -226 -4 -9 -12 -16 -18 -16 -13 0 -127 112 -196 192 -37 44 -42 47
-70 39 -38 -11 -63 3 -63 34 0 28 26 57 49 53 8 -2 25 -17 36 -34z"/>
<path d="M2147 1247 c-187 -197 -265 -285 -279 -313 -9 -19 -25 -42 -36 -52
-11 -9 -45 -45 -76 -79 -45 -50 -56 -70 -56 -97 0 -45 27 -75 74 -83 38 -6 39
-5 128 88 50 51 104 114 122 140 44 65 210 239 229 239 24 0 67 58 67 92 0 21
-10 40 -34 64 -47 47 -95 47 -139 1z m97 -43 c18 -18 18 -17 10 -38 -3 -9 -24
-20 -45 -26 -26 -7 -44 -20 -53 -38 -8 -15 -36 -47 -61 -72 -26 -25 -67 -72
-92 -105 -71 -97 -207 -244 -223 -242 -36 5 -19 40 58 120 44 45 83 93 87 106
4 13 28 45 54 70 85 85 178 187 196 214 20 30 46 35 69 11z"/>
<path d="M2179 979 c-16 -17 -29 -40 -29 -50 0 -28 36 -95 55 -103 35 -13 102
-6 118 12 65 72 25 172 -69 172 -39 0 -51 -5 -75 -31z m106 -64 c0 -25 -4 -30
-28 -33 -21 -3 -29 2 -36 20 -11 30 5 50 38 46 22 -2 26 -8 26 -33z"/>
<path d="M2474 821 c-107 -8 -122 -19 -274 -196 -23 -27 -106 -117 -184 -199
-77 -81 -144 -153 -148 -160 -14 -21 -8 -63 13 -90 16 -21 29 -26 63 -26 41 0
48 4 122 80 79 81 94 92 94 65 0 -30 38 -55 85 -55 44 0 47 2 147 106 l103
107 165 -5 c91 -3 171 -3 178 -1 19 7 42 58 42 92 0 20 -9 37 -29 54 l-29 24
-203 -5 -204 -4 24 26 c28 30 43 32 100 11 37 -13 47 -13 76 -1 35 15 65 59
65 96 0 29 -26 76 -45 84 -18 6 -32 6 -161 -3z m144 -77 c5 -37 -19 -47 -87
-33 -33 6 -71 9 -84 5 -21 -5 -190 -177 -286 -291 -19 -22 -74 -82 -123 -133
-73 -75 -93 -91 -104 -81 -8 6 -14 16 -14 21 0 5 58 68 129 141 70 73 172 182
225 242 53 61 106 117 118 125 13 9 56 18 102 21 113 8 121 7 124 -17z m192
-199 c30 -36 10 -40 -170 -36 l-173 3 -108 -111 c-74 -75 -113 -109 -124 -105
-8 3 -15 11 -15 18 1 6 51 64 113 129 l112 117 176 0 c143 0 179 -3 189 -15z"/>
</g>
</svg>
